<svg width="23" height="16" viewBox="0 0 23 16" fill="none" xmlns="http://www.w3.org/2000/svg">
<path id="Vector" d="M19.4465 1.35911C19.4465 1.35911 23 5.12324 23 11.9036V13.3254C23 13.3254 18.5124 16 17.1448 16L15.818 14.2358C16.6426 13.898 17.7675 13.3118 17.7675 13.3118L17.3565 13.0208C17.3565 13.0208 14.7272 14.1349 11.5004 14.1349C8.27361 14.1349 5.64437 13.0208 5.64437 13.0208L5.23335 13.3118C5.23335 13.3118 6.35822 13.898 7.18282 14.2358L5.85606 16C4.48756 16 0 13.3254 0 13.3254V11.9036C0 5.12324 3.5535 1.35911 3.5535 1.35911C3.5535 1.35911 5.98426 0.283196 8.22889 0L8.92528 1.20758C8.92528 1.20758 10.0323 0.973073 11.5 0.973073C12.9677 0.973073 14.0747 1.20758 14.0747 1.20758L14.7711 0C17.0157 0.283196 19.4465 1.35911 19.4465 1.35911ZM7.67093 10.913C8.80219 10.913 9.71878 9.97108 9.71878 8.80908C9.71878 7.64708 8.80176 6.70517 7.67093 6.70517C6.54009 6.70517 5.62307 7.64708 5.62307 8.80908C5.62307 9.97108 6.53967 10.913 7.67093 10.913ZM15.3291 10.913C16.4603 10.913 17.3769 9.97108 17.3769 8.80908C17.3769 7.64708 16.4599 6.70517 15.3291 6.70517C14.1978 6.70517 13.2812 7.64708 13.2812 8.80908C13.2812 9.97108 14.1978 10.913 15.3291 10.913Z" fill="#F0F0F0"/>
</svg>
