<svg width="20" height="16" viewBox="0 0 20 16" fill="none" xmlns="http://www.w3.org/2000/svg">
<path id="Vector" d="M19.6223 0.219953C19.2812 -0.0344475 18.7453 -0.0708476 18.1913 0.124753H18.1904C17.6077 0.330354 1.69614 6.33197 1.0484 6.57717C0.930588 6.61317 -0.09834 6.95077 0.00764594 7.70278C0.10226 8.38078 0.929223 8.66158 1.03021 8.69398L5.07541 9.91198C5.34379 10.6976 6.33314 13.596 6.55194 14.2152C6.6884 14.6012 6.91083 15.1084 7.30066 15.2128C7.64273 15.3288 7.98298 15.2228 8.20314 15.0708L10.6763 13.0536L14.6687 15.7916L14.7638 15.8416C15.0349 15.9472 15.2946 16 15.5425 16C15.7341 16 15.9178 15.9684 16.0934 15.9052C16.6916 15.6892 16.9308 15.188 16.9558 15.1312L19.938 1.50036C20.12 0.772355 19.8671 0.401954 19.6223 0.219953ZM8.643 10.3992L7.27837 13.5992L5.91375 9.59918L16.3759 2.79916L8.643 10.3992Z" fill="#F0F0F0"/>
</svg>
