<svg width="21" height="16" viewBox="0 0 21 16" fill="none" xmlns="http://www.w3.org/2000/svg">
<path id="Vector" d="M21 1.89389C20.2271 2.21572 19.3968 2.4323 18.5253 2.52998C19.4154 2.0302 20.0978 1.23887 20.4193 0.295329C19.5874 0.758011 18.6651 1.09423 17.6829 1.27597C16.8971 0.4907 15.7777 0 14.5387 0C12.1593 0 10.2306 1.80908 10.2306 4.03919C10.2306 4.35572 10.2694 4.66468 10.3421 4.95925C6.76174 4.79114 3.58763 3.18273 1.46187 0.738322C1.09196 1.33504 0.879543 2.02868 0.879543 2.77003C0.879543 4.17095 1.63955 5.40754 2.79532 6.13148C2.08942 6.11027 1.42471 5.92853 0.844006 5.62639C0.844006 5.64381 0.844006 5.65971 0.844006 5.67713C0.844006 7.63462 2.32849 9.26726 4.29999 9.63756C3.93896 9.72994 3.55775 9.77917 3.16442 9.77917C2.88739 9.77917 2.61682 9.75342 2.35433 9.70723C2.90273 11.3118 4.49383 12.4803 6.37891 12.5128C4.90493 13.5965 3.04731 14.2424 1.02815 14.2424C0.680859 14.2424 0.337602 14.2235 0 14.1856C1.90689 15.3313 4.17076 16 6.60425 16C14.529 16 18.8613 9.84505 18.8613 4.50717C18.8613 4.33224 18.8573 4.15808 18.8492 3.98467C19.6916 3.41445 20.4225 2.70339 21 1.89389Z" fill="#F0F0F0"/>
</svg>
