<svg width="34" height="32" viewBox="0 0 34 32" fill="none" xmlns="http://www.w3.org/2000/svg">
<g id="Vector">
<path d="M26.937 28.6899L16.2358 20.2354C15.5682 19.7086 14.622 19.6739 13.9157 20.1525L5.37467 25.9466C4.86154 26.2941 4.55532 26.8637 4.55532 27.4733V30.1364C4.55532 31.1658 5.41605 32 6.47816 32H25.7204C27.5301 32 28.3384 29.7995 26.937 28.6899Z" fill="#F0F0F0"/>
<path d="M33.6462 24.7594L33.9994 11.3825C34.0214 10.5482 33.4697 9.80225 32.6503 9.55359L22.6968 6.55093C22.0954 6.36911 21.4443 6.48408 20.9478 6.85574L18.7739 8.48407C17.9352 9.11509 17.7807 10.2862 18.429 11.1017L30.2033 25.853C31.3096 27.2407 33.5993 26.5134 33.6462 24.7594Z" fill="#F0F0F0"/>
<path d="M14.5392 0.0883935L1.35242 4.05361C0.530318 4.30228 -0.0214311 5.04826 0.000638806 5.87981L0.254444 15.9814C0.270996 16.5883 0.59101 17.1525 1.11517 17.4894L3.40217 18.96C4.28772 19.5295 5.48226 19.2969 6.06987 18.4386L16.7131 2.90121C17.7145 1.44133 16.2689 -0.430321 14.5392 0.0883935Z" fill="#F0F0F0"/>
</g>
</svg>
